# xmcd
#
# Track frame offsets: 
#        150
#        2821
#        32746
#        42339
#        94623
#        103241
#        139136
#        141148
#        180279
#        205843
#        212114
#        241276
#        285007
#
# Disc length: 4152 seconds
#
# Revision: 1
# Processed by: cddbd v1.4PL0 Copyright (c) Steve Scherf et al.
# Submitted via: ExactAudioCopy v0.90b3
#
DISCID=ae10360d
DTITLE=Stardub - Cut And Paste
DYEAR=2001
DGENRE=Electronic
TTITLE0=It´s a good record
TTITLE1=Static [CD cut)
TTITLE2=Industrial sound and magic
TTITLE3=Tribal dub (Fade in)
TTITLE4=Back in the track
TTITLE5=Realisations (feat. Tyrone Ward)
TTITLE6=Carrying the gold
TTITLE7=Back to back
TTITLE8=Morning fun (feat. Clair Dietrich)
TTITLE9=Plaza cataluna
TTITLE10=Cut and Paste
TTITLE11=Svaen Vaeth presents: *Barbarella 2000* (Stardub Clubslam)
TTITLE12=Dub Taylor presents: *Summer rainbow* (Stardub Clubslam)
EXTD=
EXTT0=
EXTT1=
EXTT2=
EXTT3=
EXTT4=
EXTT5=
EXTT6=
EXTT7=
EXTT8=
EXTT9=
EXTT10=
EXTT11=
EXTT12=
PLAYORDER=
